<svg width="680" height="600" viewBox="0 0 680 600" xmlns="http://www.w3.org/2000/svg">
<defs>
<marker id="arrow" viewBox="0 0 10 10" refX="8" refY="5" markerWidth="6" markerHeight="6" orient="auto-start-reverse">
<path d="M2 1L8 5L2 9" fill="none" stroke="context-stroke" stroke-width="1.5" stroke-linecap="round" stroke-linejoin="round"/>
</marker>
</defs>

<!-- Shared lattice — center -->
<rect x="190" y="210" width="300" height="110" rx="16" fill="#F5C4B3" stroke="#993C1D" stroke-width="0.5"/>
<text font-family="sans-serif" font-size="14" font-weight="500" fill="#4A1B0C" x="340" y="240" text-anchor="middle" dominant-baseline="central">Shared lattice</text>
<text font-family="sans-serif" font-size="12" fill="#712B13" x="340" y="260" text-anchor="middle" dominant-baseline="central">Permanent addresses · bidirectional links</text>

<!-- Lattice nodes -->
<circle cx="220" cy="298" r="5" fill="#993C1D"/>
<circle cx="256" cy="288" r="5" fill="#993C1D"/>
<circle cx="292" cy="300" r="5" fill="#993C1D"/>
<circle cx="340" cy="288" r="5" fill="#993C1D"/>
<circle cx="388" cy="300" r="5" fill="#993C1D"/>
<circle cx="424" cy="288" r="5" fill="#993C1D"/>
<circle cx="460" cy="298" r="5" fill="#993C1D"/>
<line x1="225" y1="296" x2="251" y2="290" stroke="#712B13" stroke-width="0.5"/>
<line x1="261" y1="290" x2="287" y2="298" stroke="#712B13" stroke-width="0.5"/>
<line x1="297" y1="298" x2="335" y2="290" stroke="#712B13" stroke-width="0.5"/>
<line x1="345" y1="290" x2="383" y2="298" stroke="#712B13" stroke-width="0.5"/>
<line x1="393" y1="298" x2="419" y2="290" stroke="#712B13" stroke-width="0.5"/>
<line x1="429" y1="290" x2="455" y2="296" stroke="#712B13" stroke-width="0.5"/>

<!-- Collective 1 — top left -->
<rect x="20" y="20" width="210" height="110" rx="8" fill="#CECBF6" stroke="#534AB7" stroke-width="0.5"/>
<text font-family="sans-serif" font-size="14" font-weight="500" fill="#26215C" x="125" y="50" text-anchor="middle" dominant-baseline="central">Collective 1</text>
<text font-family="sans-serif" font-size="12" fill="#3C3489" x="125" y="72" text-anchor="middle" dominant-baseline="central">Agents + theory channel</text>
<text font-family="sans-serif" font-size="12" fill="#3C3489" x="125" y="90" text-anchor="middle" dominant-baseline="central">+ data channel</text>
<rect x="45" y="104" width="160" height="18" rx="3" fill="none" stroke="#534AB7" stroke-width="0.5"/>
<text font-family="sans-serif" font-size="12" fill="#3C3489" x="125" y="116" text-anchor="middle" dominant-baseline="central">vocabulary firewall</text>

<!-- Collective 2 — top right -->
<rect x="450" y="20" width="210" height="110" rx="8" fill="#CECBF6" stroke="#534AB7" stroke-width="0.5"/>
<text font-family="sans-serif" font-size="14" font-weight="500" fill="#26215C" x="555" y="50" text-anchor="middle" dominant-baseline="central">Collective 2</text>
<text font-family="sans-serif" font-size="12" fill="#3C3489" x="555" y="72" text-anchor="middle" dominant-baseline="central">Agents + theory channel</text>
<text font-family="sans-serif" font-size="12" fill="#3C3489" x="555" y="90" text-anchor="middle" dominant-baseline="central">+ data channel</text>
<rect x="475" y="104" width="160" height="18" rx="3" fill="none" stroke="#534AB7" stroke-width="0.5"/>
<text font-family="sans-serif" font-size="12" fill="#3C3489" x="555" y="116" text-anchor="middle" dominant-baseline="central">vocabulary firewall</text>

<!-- Collective 3 — bottom left -->
<rect x="20" y="420" width="210" height="110" rx="8" fill="#CECBF6" stroke="#534AB7" stroke-width="0.5"/>
<text font-family="sans-serif" font-size="14" font-weight="500" fill="#26215C" x="125" y="450" text-anchor="middle" dominant-baseline="central">Collective 3</text>
<text font-family="sans-serif" font-size="12" fill="#3C3489" x="125" y="472" text-anchor="middle" dominant-baseline="central">Agents + theory channel</text>
<text font-family="sans-serif" font-size="12" fill="#3C3489" x="125" y="490" text-anchor="middle" dominant-baseline="central">+ data channel</text>
<rect x="45" y="504" width="160" height="18" rx="3" fill="none" stroke="#534AB7" stroke-width="0.5"/>
<text font-family="sans-serif" font-size="12" fill="#3C3489" x="125" y="516" text-anchor="middle" dominant-baseline="central">vocabulary firewall</text>

<!-- Collective 4 — bottom right -->
<rect x="450" y="420" width="210" height="110" rx="8" fill="#CECBF6" stroke="#534AB7" stroke-width="0.5"/>
<text font-family="sans-serif" font-size="14" font-weight="500" fill="#26215C" x="555" y="450" text-anchor="middle" dominant-baseline="central">Collective 4</text>
<text font-family="sans-serif" font-size="12" fill="#3C3489" x="555" y="472" text-anchor="middle" dominant-baseline="central">Agents + theory channel</text>
<text font-family="sans-serif" font-size="12" fill="#3C3489" x="555" y="490" text-anchor="middle" dominant-baseline="central">+ data channel</text>
<rect x="475" y="504" width="160" height="18" rx="3" fill="none" stroke="#534AB7" stroke-width="0.5"/>
<text font-family="sans-serif" font-size="12" fill="#3C3489" x="555" y="516" text-anchor="middle" dominant-baseline="central">vocabulary firewall</text>

<!-- Arrows from collectives into lattice -->
<line x1="210" y1="130" x2="258" y2="214" stroke="#534AB7" stroke-width="1.5" marker-end="url(#arrow)"/>
<line x1="460" y1="130" x2="412" y2="214" stroke="#534AB7" stroke-width="1.5" marker-end="url(#arrow)"/>
<line x1="210" y1="420" x2="258" y2="318" stroke="#534AB7" stroke-width="1.5" marker-end="url(#arrow)"/>
<line x1="460" y1="420" x2="412" y2="318" stroke="#534AB7" stroke-width="1.5" marker-end="url(#arrow)"/>

<!-- Legend -->
<text font-family="sans-serif" font-size="12" fill="#444441" x="340" y="558" text-anchor="middle">collectives read via permanent addresses — no copying</text>
<line x1="200" y1="578" x2="240" y2="578" stroke="#534AB7" stroke-width="1.5" marker-end="url(#arrow)"/>
<text font-family="sans-serif" font-size="12" fill="#444441" x="246" y="582">verified nodes added to shared lattice</text>

</svg>
